<?xml version="1.0" standalone="no"?>
<!DOCTYPE svg PUBLIC "-//W3C//DTD SVG 20010904//EN"
 "http://www.w3.org/TR/2001/REC-SVG-20010904/DTD/svg10.dtd">
<svg version="1.0" xmlns="http://www.w3.org/2000/svg"
 width="512.000000pt" height="512.000000pt" viewBox="0 0 512.000000 512.000000"
 preserveAspectRatio="xMidYMid meet">

<g transform="translate(0.000000,512.000000) scale(0.100000,-0.100000)"
fill="#000000" stroke="none">
<path d="M2270 4834 c-803 -103 -1493 -622 -1815 -1366 -136 -316 -193 -619
-182 -982 9 -322 68 -579 196 -867 297 -662 917 -1160 1626 -1304 213 -43 502
-57 713 -34 820 88 1535 620 1862 1382 243 568 241 1235 -5 1803 -328 758
-1040 1285 -1857 1373 -130 15 -408 12 -538 -5z m520 -314 c456 -57 861 -258
1181 -586 163 -168 261 -306 359 -509 337 -691 245 -1508 -237 -2105 -72 -89
-243 -257 -328 -321 -282 -216 -622 -355 -975 -399 -109 -13 -351 -13 -460 0
-352 44 -693 183 -975 399 -90 68 -269 246 -340 336 -232 297 -372 636 -416
1009 -15 126 -6 431 15 546 38 202 81 335 167 518 122 257 292 476 524 672
259 218 623 382 955 429 41 6 86 13 100 15 57 8 352 5 430 -4z"/>
<path d="M2480 3751 c-116 -38 -184 -135 -183 -261 0 -36 24 -344 52 -685 39
-466 56 -630 68 -659 52 -119 234 -119 286 0 12 29 29 193 68 659 28 341 52
649 52 685 1 107 -50 197 -138 242 -43 23 -161 34 -205 19z"/>
<path d="M2510 1781 c-105 -34 -160 -106 -160 -211 0 -182 220 -277 354 -152
81 76 88 220 13 300 -47 51 -149 82 -207 63z"/>
</g>
</svg>
